<?xml version="1.0" encoding="UTF-8" standalone="no"?>
<!-- Created with Inkscape (http://www.inkscape.org/) -->

<svg
   xmlns:dc="http://purl.org/dc/elements/1.1/"
   xmlns:cc="http://creativecommons.org/ns#"
   xmlns:rdf="http://www.w3.org/1999/02/22-rdf-syntax-ns#"
   xmlns:svg="http://www.w3.org/2000/svg"
   xmlns="http://www.w3.org/2000/svg"
   xmlns:sodipodi="http://sodipodi.sourceforge.net/DTD/sodipodi-0.dtd"
   xmlns:inkscape="http://www.inkscape.org/namespaces/inkscape"
   version="1.1"
   width="136.7991"
   height="70.971474"
   id="svg2"
   xml:space="preserve"
   inkscape:version="0.48.3.1 r9886"
   sodipodi:docname="Met_pms_horisontal.svg"><sodipodi:namedview
   pagecolor="#ffffff"
   bordercolor="#666666"
   borderopacity="1"
   objecttolerance="10"
   gridtolerance="10"
   guidetolerance="10"
   inkscape:pageopacity="0"
   inkscape:pageshadow="2"
   inkscape:window-width="1539"
   inkscape:window-height="922"
   id="namedview29"
   showgrid="false"
   inkscape:zoom="6.7007433"
   inkscape:cx="92.901721"
   inkscape:cy="46.596154"
   inkscape:window-x="268"
   inkscape:window-y="84"
   inkscape:window-maximized="0"
   inkscape:current-layer="svg2"
   fit-margin-top="0"
   fit-margin-left="0"
   fit-margin-right="0"
   fit-margin-bottom="0" /><metadata
   id="metadata8"><rdf:RDF><cc:Work
       rdf:about=""><dc:format>image/svg+xml</dc:format><dc:type
         rdf:resource="http://purl.org/dc/dcmitype/StillImage" /><dc:title /></cc:Work></rdf:RDF></metadata><defs
   id="defs6" /><path
   d="m 11.79942,1.737375 c -5.4130878,0 -9.8169003,4.40425 -9.8169003,9.816875 0,5.4135 4.4038125,9.818375 9.8169003,9.818375 5.414562,0 9.819312,-4.404875 9.819312,-9.818375 0,-5.412625 -4.40475,-9.816875 -9.819312,-9.816875 z m 0,21.372 c -6.3696253,0 -11.5527353,-5.1845 -11.5527353,-11.555125 C 0.2466847,5.184625 5.4297947,0 11.79942,0 c 6.371562,0 11.553687,5.184625 11.553687,11.55425 0,6.370625 -5.182125,11.555125 -11.553687,11.555125"
   id="path14"
   style="fill:#1099ad;fill-opacity:1;fill-rule:nonzero;stroke:none"
   inkscape:connector-curvature="0" /><path
   d="m 18.693982,37.777375 -4.52,-4.519038 -4.5215373,4.519038 -4.5214875,-4.519038 -3.9526313,3.950191 -1.1367187,-1.133791 5.08935,-5.086912 4.5214875,4.517575 4.5215373,-4.517575 4.519,4.517575 3.94725,-3.950188 1.13825,1.136713 -5.0845,5.08545"
   id="path16"
   style="fill:#1099ad;fill-opacity:1;fill-rule:nonzero;stroke:none"
   inkscape:connector-curvature="0" /><path
   d="m 44.281357,5.571375 1.630875,0 0,10.6665 -1.61675,0 0,-7.404875 -2.193375,4.541 -1.34125,0 -2.195375,-4.541 0,7.404875 -1.61375,0 0,-10.6665 1.630875,0 2.849125,5.897375 2.849625,-5.897375"
   id="path18"
   style="fill:#1099ad;fill-opacity:1;fill-rule:nonzero;stroke:none"
   inkscape:connector-curvature="0" /><path
   d="m 49.945357,11.40775 0,0.01563 3.352125,0 0,-0.01563 c -0.01463,-1.142625 -0.701125,-1.7065 -1.67525,-1.7065 -0.99075,0 -1.676875,0.563875 -1.676875,1.7065 z m 3.276,2.3315 1.63075,0 c -0.272875,2.088375 -1.96475,2.652375 -3.229875,2.652375 -1.371625,0 -3.275875,-0.670875 -3.275875,-3.26175 l 0,-1.7065 c 0,-2.590375 1.90425,-3.26175 3.275875,-3.26175 1.371,0 3.275375,0.671375 3.275375,3.26175 l 0,1.416 -4.95225,0 0,0.26025 c 0,1.1875 0.686125,1.752 1.676875,1.752 0.7915,0 1.386625,-0.36525 1.599125,-1.112375"
   id="path20"
   style="fill:#1099ad;fill-opacity:1;fill-rule:nonzero;stroke:none"
   inkscape:connector-curvature="0" /><path
   d="m 59.359482,13.952625 c 0,0.578625 0.106875,0.747625 0.731,0.747625 l 1.203625,0 0,1.537625 -1.66125,0 c -1.31,0 -1.874,-0.63975 -1.874,-1.873625 l 0,-4.48 -1.11175,0 0,-1.50875 1.11175,0 0,-1.78225 1.600625,0 0,1.78225 1.934625,0 0,1.50875 -1.934625,0 0,4.068375"
   id="path22"
   style="fill:#1099ad;fill-opacity:1;fill-rule:nonzero;stroke:none"
   inkscape:connector-curvature="0" /><path
   d="m 64.913732,11.40775 0,0.01563 3.3525,0 0,-0.01563 c -0.01462,-1.142625 -0.70075,-1.7065 -1.67525,-1.7065 -0.99125,0 -1.67725,0.563875 -1.67725,1.7065 z m 3.27675,2.3315 1.630875,0 c -0.273375,2.088375 -1.96525,2.652375 -3.230375,2.652375 -1.372125,0 -3.276375,-0.670875 -3.276375,-3.26175 l 0,-1.7065 c 0,-2.590375 1.90425,-3.26175 3.276375,-3.26175 1.3725,0 3.27675,0.671375 3.27675,3.26175 l 0,1.416 -4.954,0 0,0.26025 c 0,1.1875 0.686,1.752 1.67725,1.752 0.7915,0 1.387125,-0.36525 1.5995,-1.112375"
   id="path24"
   style="fill:#1099ad;fill-opacity:1;fill-rule:nonzero;stroke:none"
   inkscape:connector-curvature="0" /><path
   d="m 77.025982,11.452625 c 0,-1.1875 -0.686,-1.751375 -1.67725,-1.751375 -0.98875,0 -1.67475,0.563875 -1.67475,1.751375 l 0,1.647 c 0,1.1875 0.686,1.752 1.67475,1.752 0.99125,0 1.67725,-0.5645 1.67725,-1.752 l 0,-1.647 z m -4.953625,-0.02925 c 0,-2.590375 1.90425,-3.26175 3.276375,-3.26175 1.372125,0 3.276375,0.671375 3.276375,3.26175 l 0,1.7065 c 0,2.590875 -1.90425,3.26175 -3.276375,3.26175 -1.372125,0 -3.276375,-0.670875 -3.276375,-3.26175 l 0,-1.7065"
   id="path26"
   style="fill:#1099ad;fill-opacity:1;fill-rule:nonzero;stroke:none"
   inkscape:connector-curvature="0" /><path
   d="m 84.152482,9.7925 c -0.98875,0 -1.674875,0.548375 -1.674875,1.735875 l 0,4.7095 -1.599125,0 0,-7.862375 1.599125,0 0,0.76175 c 0.227125,-0.458 1.005875,-0.899875 1.828625,-0.899875 l 0.610375,0 0,1.555125 -0.764125,0"
   id="path28"
   style="fill:#1099ad;fill-opacity:1;fill-rule:nonzero;stroke:none"
   inkscape:connector-curvature="0" /><path
   d="m 91.510857,11.452625 c 0,-1.1875 -0.686,-1.751375 -1.674875,-1.751375 -0.991125,0 -1.677125,0.563875 -1.677125,1.751375 l 0,1.647 c 0,1.1875 0.686,1.752 1.677125,1.752 0.988875,0 1.674875,-0.5645 1.674875,-1.752 l 0,-1.647 z m -4.951125,-0.02925 c 0,-2.590375 1.90425,-3.26175 3.27625,-3.26175 1.369625,0 3.276375,0.671375 3.276375,3.26175 l 0,1.7065 c 0,2.590875 -1.90675,3.26175 -3.276375,3.26175 -1.372,0 -3.27625,-0.670875 -3.27625,-3.26175 l 0,-1.7065"
   id="path30"
   style="fill:#1099ad;fill-opacity:1;fill-rule:nonzero;stroke:none"
   inkscape:connector-curvature="0" /><path
   d="m 97.023482,13.952625 c 0,0.578625 0.1075,0.747625 0.7325,0.747625 l 0.244125,0 0,1.537625 -0.70075,0 c -1.311,0 -1.875,-0.63975 -1.875,-1.873625 l 0,-8.792875 1.599125,0 0,8.38125"
   id="path32"
   style="fill:#1099ad;fill-opacity:1;fill-rule:nonzero;stroke:none"
   inkscape:connector-curvature="0" /><path
   d="m 104.93123,11.452625 c 0,-1.1875 -0.686,-1.751375 -1.67725,-1.751375 -0.98875,0 -1.67475,0.563875 -1.67475,1.751375 l 0,1.647 c 0,1.1875 0.686,1.752 1.67475,1.752 0.99125,0 1.67725,-0.5645 1.67725,-1.752 l 0,-1.647 z m -4.953623,-0.02925 c 0,-2.590375 1.904373,-3.26175 3.276373,-3.26175 1.37213,0 3.27638,0.671375 3.27638,3.26175 l 0,1.7065 c 0,2.590875 -1.90425,3.26175 -3.27638,3.26175 -1.372,0 -3.276373,-0.670875 -3.276373,-3.26175 l 0,-1.7065"
   id="path34"
   style="fill:#1099ad;fill-opacity:1;fill-rule:nonzero;stroke:none"
   inkscape:connector-curvature="0" /><path
   d="m 119.38436,16.237875 -1.59913,0 0,-7.862375 1.59913,0 0,7.862375 z m 0,-9.03575 -1.59913,0 0,-1.63075 1.59913,0 0,1.63075"
   id="path36"
   style="fill:#1099ad;fill-opacity:1;fill-rule:nonzero;stroke:none"
   inkscape:connector-curvature="0" /><path
   d="m 121.54748,13.723125 1.6455,0 c 0.12213,0.777875 0.86913,1.1285 1.72363,1.1285 0.7,0 1.29375,-0.183125 1.29375,-0.82275 0,-0.53225 -0.47375,-0.70125 -0.99125,-0.82275 l -1.4915,-0.380875 c -1.0375,-0.25925 -1.997,-0.837875 -1.997,-2.34675 0,-1.555125 1.25,-2.316875 2.84912,-2.316875 1.69188,0 2.86563,0.76175 3.01688,2.51375 l -1.67625,0 c -0.1225,-0.685125 -0.71625,-0.974125 -1.44813,-0.974125 -0.48575,0 -1.1255,0.183 -1.1255,0.808 0,0.47225 0.45663,0.625 0.88388,0.73 l 1.44475,0.36625 c 1.43375,0.36625 2.15125,0.975625 2.15125,2.46975 -0.0175,1.553625 -1.22125,2.316375 -2.92713,2.316375 -1.81387,0 -3.25925,-0.868625 -3.352,-2.6685"
   id="path38"
   style="fill:#1099ad;fill-opacity:1;fill-rule:nonzero;stroke:none"
   inkscape:connector-curvature="0" /><path
   d="m 131.49661,11.57475 2.93875,-3.19925 1.93625,0 -2.835,3.077125 3.2625,4.78525 -1.86125,0 -2.4675,-3.6265 -0.97375,1.066875 0,2.559625 -1.6025,0 0,-10.6665 1.6025,0 0,6.003375"
   id="path40"
   style="fill:#1099ad;fill-opacity:1;fill-rule:nonzero;stroke:none"
   inkscape:connector-curvature="0" /><path
   d="m 38.475732,31.9595 -1.600625,0 0,-7.86275 1.600625,0 0,7.86275 z m 0,-9.037125 -1.600625,0 0,-1.629375 1.600625,0 0,1.629375"
   id="path42"
   style="fill:#1099ad;fill-opacity:1;fill-rule:nonzero;stroke:none"
   inkscape:connector-curvature="0" /><path
   d="m 42.722232,31.9595 -1.6,0 0,-7.86275 1.6,0 0,0.685 c 0.228125,-0.4565 1.005875,-0.898375 1.827125,-0.898375 1.358,0 3.125,0.838375 3.125,3.261675 l 0,4.81445 -1.6,0 0,-4.784175 c 0,-1.188475 -0.685125,-1.738287 -1.675875,-1.738287 -0.991125,0 -1.67625,0.549812 -1.67625,1.738287 l 0,4.784175"
   id="path44"
   style="fill:#1099ad;fill-opacity:1;fill-rule:nonzero;stroke:none"
   inkscape:connector-curvature="0" /><path
   d="m 60.242732,29.67435 c 0,0.578612 0.1065,0.7456 0.7315,0.7456 l 1.205125,0 0,1.53955 -1.662625,0 c -1.310125,0 -1.874,-0.63965 -1.874,-1.875 l 0,-4.479975 -1.112375,0 0,-1.507775 1.112375,0 0,-1.78325 1.6,0 0,1.78325 1.936625,0 0,1.507775 -1.936625,0 0,4.069825 z m -10.545375,-0.228513 1.647,0 c 0.121625,0.776363 0.867625,1.12695 1.72075,1.12695 0.701125,0 1.295375,-0.183112 1.295375,-0.822762 0,-0.533688 -0.472625,-0.700675 -0.98975,-0.82275 l -1.494125,-0.380863 c -1.035625,-0.258787 -1.996125,-0.8374 -1.996125,-2.34765 0,-1.552762 1.2485,-2.315387 2.850625,-2.315387 1.690375,0 2.86375,0.762625 3.016125,2.5146 l -1.676375,0 c -0.1215,-0.686025 -0.71475,-0.975575 -1.44775,-0.975575 -0.48825,0 -1.127375,0.182125 -1.127375,0.808587 0,0.4707 0.4575,0.625 0.88325,0.730963 l 1.44775,0.364737 c 1.433125,0.366213 2.149,0.975588 2.149,2.468263 -0.01475,1.555175 -1.21825,2.317388 -2.925375,2.317388 -1.8135,0 -3.26125,-0.868163 -3.353,-2.666501"
   id="path46"
   style="fill:#1099ad;fill-opacity:1;fill-rule:nonzero;stroke:none"
   inkscape:connector-curvature="0" /><path
   d="m 65.997232,31.9595 -1.59875,0 0,-7.86275 1.59875,0 0,7.86275 z m 0,-9.037125 -1.59875,0 0,-1.629375 1.59875,0 0,1.629375"
   id="path48"
   style="fill:#1099ad;fill-opacity:1;fill-rule:nonzero;stroke:none"
   inkscape:connector-curvature="0" /><path
   d="m 70.873607,29.67435 c 0,0.578612 0.105,0.7456 0.73,0.7456 l 1.203625,0 0,1.53955 -1.660125,0 c -1.311125,0 -1.875,-0.63965 -1.875,-1.875 l 0,-4.479975 -1.11325,0 0,-1.507775 1.11325,0 0,-1.78325 1.6015,0 0,1.78325 1.933625,0 0,1.507775 -1.933625,0 0,4.069825"
   id="path50"
   style="fill:#1099ad;fill-opacity:1;fill-rule:nonzero;stroke:none"
   inkscape:connector-curvature="0" /><path
   d="m 76.584107,28.820837 c 0,1.187988 0.686,1.7373 1.630875,1.7373 0.94475,0 1.630875,-0.549312 1.630875,-1.7373 l 0,-4.724087 1.599125,0 0,7.86275 -1.599125,0 0,-0.747063 c -0.2295,0.457513 -1.005875,0.899901 -1.828625,0.899901 -1.355,0 -3.03225,-0.945313 -3.03225,-3.260738 l 0,-4.75485 1.599125,0 0,4.724087"
   id="path52"
   style="fill:#1099ad;fill-opacity:1;fill-rule:nonzero;stroke:none"
   inkscape:connector-curvature="0" /><path
   d="m 92.216357,29.67435 c 0,0.578612 0.1075,0.7456 0.7325,0.7456 l 1.203625,0 0,1.53955 -1.662625,0 c -1.308625,0 -1.872625,-0.63965 -1.872625,-1.875 l 0,-4.479975 -1.11325,0 0,-1.507775 1.11325,0 0,-1.78325 1.599125,0 0,1.78325 1.936125,0 0,1.507775 -1.936125,0 0,4.069825 z m -6.157125,0 c 0,0.578612 0.107375,0.7456 0.732375,0.7456 l 1.203625,0 0,1.53955 -1.660125,0 c -1.311125,0 -1.875,-0.63965 -1.875,-1.875 l 0,-4.479975 -1.113375,0 0,-1.507775 1.113375,0 0,-1.78325 1.599125,0 0,1.78325 1.936,0 0,1.507775 -1.936,0 0,4.069825"
   id="path54"
   style="fill:#1099ad;fill-opacity:1;fill-rule:nonzero;stroke:none"
   inkscape:connector-curvature="0" /><path
   d="m 110.21448,12.641625 c 0,1.1895 0.686,1.73725 1.67725,1.73725 0.98875,0 1.67475,-0.54775 1.67475,-1.73725 l 0,-1.189 c 0,-1.1875 -0.686,-1.73575 -1.67475,-1.73575 -0.99125,0 -1.67725,0.54825 -1.67725,1.73575 l 0,1.189 z m 3.352,3.26225 0,-0.869625 c -0.227,0.458 -1.00587,0.898375 -1.82862,0.898375 -1.355,0 -3.1225,-0.836875 -3.1225,-3.26025 l 0,-1.249 c 0,-2.424375 1.7675,-3.26175 3.1225,-3.26175 0.82275,0 1.60162,0.441875 1.82862,0.899875 l 0,-0.686 1.60163,0 0,7.557125 c 0,2.591875 -1.90675,3.26225 -3.27638,3.26225 -1.29637,0 -3.03225,-0.59325 -3.24712,-2.80325 l 1.61625,0 c 0.1685,0.8535 0.7935,1.263625 1.63087,1.263625 0.98875,0 1.67475,-0.563875 1.67475,-1.751375"
   id="path56"
   style="fill:#1099ad;fill-opacity:1;fill-rule:nonzero;stroke:none"
   inkscape:connector-curvature="0" /><text
   xml:space="preserve"
   style="font-size:23.41378592999999952px;font-style:normal;font-variant:normal;font-weight:normal;font-stretch:normal;text-align:start;line-height:125%;letter-spacing:0px;word-spacing:0px;writing-mode:lr-tb;text-anchor:start;fill:#1099ad;fill-opacity:1;stroke:none;font-family:Arial;-inkscape-font-specification:Arial"
   x="-2.18361"
   y="70.964287"
   id="text3006"
   sodipodi:linespacing="125%"
   transform="scale(1.0693268,0.9351678)"><tspan
     sodipodi:role="line"
     id="tspan3008"
     x="-2.18361"
     y="70.964287">IT-divisjonen</tspan></text>




</svg>